<svg width="376" height="335" viewBox="0 0 376 335" fill="none" xmlns="http://www.w3.org/2000/svg">
<path d="M188.051 74.2849C173.184 39.2971 140.064 16.2114 103.869 15.4932C72.8006 14.8775 39.0662 30.5759 23.5833 60.8439C1.74309 103.629 30.1456 148.365 35.3749 156.573C42.4499 167.757 49.8325 174.631 52.1909 176.888C78.9528 202.231 121.915 246.966 188.154 319.815C254.392 247.069 297.252 202.231 324.117 176.888C326.475 174.631 333.858 167.757 340.933 156.573C346.059 148.467 374.565 103.629 352.724 60.8439C337.241 30.5759 303.507 14.7749 272.439 15.4932C236.243 16.2114 203.124 39.2971 188.256 74.2849H188.051Z" stroke="#F7CB70" stroke-width="3" stroke-linecap="round" stroke-linejoin="round"/>
</svg>
