<svg width="72" height="74" viewBox="0 0 72 74" fill="none" xmlns="http://www.w3.org/2000/svg">
<g filter="url(#filter0_d_346_42)">
<path d="M12.0674 60.04L4.6001 26.04H66.6001L60.2632 60.2086L12.0674 60.04Z" fill="white" stroke="white" stroke-linecap="round" stroke-linejoin="round"/>
<path d="M25.4153 68.5996C29.8336 68.5996 33.4153 65.2417 33.4153 61.0996C33.4153 56.9575 29.8336 53.5996 25.4153 53.5996C20.997 53.5996 17.4153 56.9575 17.4153 61.0996C17.4153 65.2417 20.997 68.5996 25.4153 68.5996Z" fill="white" stroke="white" stroke-linecap="round" stroke-linejoin="round"/>
<path d="M46.9153 68.5996C51.0574 68.5996 54.4153 65.2417 54.4153 61.0996C54.4153 56.9575 51.0574 53.5996 46.9153 53.5996C42.7731 53.5996 39.4153 56.9575 39.4153 61.0996C39.4153 65.2417 42.7731 68.5996 46.9153 68.5996Z" fill="white" stroke="white" stroke-linecap="round" stroke-linejoin="round"/>
<path d="M5.90865 25.5407C5.86454 24.7606 7.94416 23.2128 8.92095 23.6247C9.59526 23.9118 9.7528 25.1413 9.85363 25.1163C9.99228 25.0789 9.0848 22.8258 9.85363 22.1331C10.572 21.4902 12.3681 22.5138 12.5761 22.1331C12.7651 21.7898 11.2905 20.9785 11.4291 20.2857C11.5236 19.8114 12.4878 19.8488 14.9393 19.2185C16.3761 18.8503 16.6282 18.7005 16.8046 18.4383C17.4285 17.4959 16.2816 16.2352 16.8046 15.6673C17.4159 15.0057 19.1867 16.4911 20.529 15.6673C21.2664 15.2179 21.1592 14.5127 21.9596 14.2506C22.8229 13.9697 23.4405 14.6063 23.8942 14.2506C24.3858 13.8574 23.7745 12.9961 24.2535 12.4032C24.8395 11.6792 26.1314 12.5218 27.2658 11.6917C27.9464 11.1987 27.6943 10.7431 28.3434 10.4123C29.295 9.93174 30.2403 10.7056 30.9209 10.1315C31.217 9.88181 31.0595 9.73203 31.3494 9.35132C32.093 8.3902 33.4479 8.94565 34.2167 8.14679C34.7713 7.56637 34.305 7.0234 34.7209 6.23078C35.7733 4.22115 40.6321 4.17122 41.3127 5.5193C41.4891 5.8688 41.3694 6.26823 41.7412 6.65517C42.1571 7.08581 42.5604 6.85489 43.0331 7.22311C43.7515 7.77857 43.3041 8.68977 43.9658 9.13913C44.5266 9.52607 45.0623 9.00806 45.6169 9.41997C46.184 9.84437 45.8626 10.5621 46.4046 10.9116C46.852 11.1987 47.2112 10.7993 48.125 10.9116C48.3078 10.9366 49.3224 11.0551 49.9148 11.7604C50.6143 12.5904 50.1668 13.5641 50.8474 13.9635C51.2445 14.1944 51.4902 13.9198 51.8494 14.1757C52.4292 14.5876 52.0385 15.4551 52.5679 15.8795C53.0405 16.2602 53.5509 15.7235 54.1433 16.023C55.0949 16.5036 54.4899 18.2449 55.4352 18.8627C56.2356 19.387 57.0926 18.4071 58.0127 18.9314C58.9958 19.4931 58.5673 20.8973 59.5188 21.3467C60.357 21.7399 61.151 20.8724 61.8127 21.3467C62.3799 21.7586 62.0081 22.5699 62.6005 22.9819C63.1676 23.375 63.7852 22.8258 64.5351 23.0505C65.6065 23.375 66.161 25.0476 66.1106 25.5345C65.6506 29.9407 6.14182 29.6161 5.90865 25.5345V25.5407Z" fill="#808080" stroke="#808080" stroke-linecap="round" stroke-linejoin="round"/>
</g>
<defs>
<filter id="filter0_d_346_42" x="9.77516e-05" y="-0.00039053" width="71.2" height="73.2" filterUnits="userSpaceOnUse" color-interpolation-filters="sRGB">
<feFlood flood-opacity="0" result="BackgroundImageFix"/>
<feColorMatrix in="SourceAlpha" type="matrix" values="0 0 0 0 0 0 0 0 0 0 0 0 0 0 0 0 0 0 127 0" result="hardAlpha"/>
<feOffset/>
<feGaussianBlur stdDeviation="2.05"/>
<feComposite in2="hardAlpha" operator="out"/>
<feColorMatrix type="matrix" values="0 0 0 0 0 0 0 0 0 0 0 0 0 0 0 0 0 0 0.25 0"/>
<feBlend mode="normal" in2="BackgroundImageFix" result="effect1_dropShadow_346_42"/>
<feBlend mode="normal" in="SourceGraphic" in2="effect1_dropShadow_346_42" result="shape"/>
</filter>
</defs>
</svg>
